<svg width="75" height="75" viewBox="0 0 75 75" fill="none" xmlns="http://www.w3.org/2000/svg">
<path d="M59.3345 5.30176C62.9658 5.30176 66.0693 6.57822 68.6473 9.13066C71.2248 11.6831 72.5139 14.7579 72.5142 18.3529V61.8552C72.5142 65.45 71.2252 68.5245 68.6471 71.0774C66.0702 73.6303 62.9655 74.9068 59.3353 74.9068H50.1487H49.0846L25.6536 74.9082H24.3427H15.4028C11.7727 74.9082 8.66793 73.6318 6.0899 71.0788C3.51234 68.5264 2.22333 65.4524 2.22333 61.8573V18.3529C2.22333 14.7579 3.51234 11.6836 6.0899 9.13066C8.66809 6.57822 11.7727 5.30176 15.4028 5.30176H59.3345Z" fill="white"/>
<path d="M26.3673 63.039C25.8458 63.1361 25.618 63.3808 25.6833 63.7711C25.7483 64.1616 26.0413 64.2921 26.5621 64.1616C27.0835 64.0316 27.3112 63.8033 27.2456 63.478C27.181 63.1202 26.888 62.9735 26.3673 63.039Z" fill="black"/>
<path d="M23.5838 63.43C23.0629 63.43 22.8026 63.608 22.8026 63.9668C22.8026 64.3899 23.0795 64.5685 23.6326 64.5035C24.1535 64.5035 24.4142 64.3244 24.4142 63.9668C24.4142 63.5442 24.1373 63.3645 23.5838 63.43Z" fill="black"/>
<path d="M19.7753 63.2824C19.6453 63.6406 19.8571 63.8842 20.41 64.015C20.8982 64.2095 21.2076 64.1122 21.3376 63.7219C21.4354 63.3643 21.2237 63.1045 20.7029 62.9406C20.2145 62.8108 19.9055 62.9232 19.7753 63.2824Z" fill="black"/>
<path d="M70.874 4.12559C68.1233 1.37537 64.8119 0 60.9374 0H14.0624C10.1891 0 6.87653 1.37537 4.12561 4.12559C1.37537 6.87633 0 10.1889 0 14.0624V60.9378C0 64.8115 1.37537 68.1237 4.12561 70.8739C6.87636 73.6246 10.1891 75 14.0624 75H23.6013H24.9999C25.7155 75 26.253 74.9754 26.611 74.9275C26.9688 74.8782 27.3266 74.6665 27.6848 74.2918C28.0433 73.9178 28.2219 73.3724 28.2219 72.6565C28.2219 72.5593 28.2133 71.4514 28.1972 69.3357C28.1806 67.2193 28.1726 65.5431 28.1726 64.3059L27.0495 64.5014C26.3334 64.6314 25.4301 64.6887 24.3394 64.6723C23.2493 64.6558 22.1178 64.5423 20.9462 64.3305C19.7738 64.1187 18.6837 63.6305 17.6745 62.8662C16.6658 62.1006 15.9497 61.0999 15.5264 59.8633L15.038 58.7395C14.7125 57.9916 14.2001 57.1611 13.5001 56.2504C12.8001 55.3385 12.0923 54.7199 11.3762 54.3944L11.0343 54.1502C10.8067 53.9876 10.5951 53.7914 10.3996 53.5638C10.2045 53.3355 10.0581 53.1073 9.96044 52.8802C9.86278 52.6519 9.94385 52.4646 10.2045 52.3177C10.4651 52.1715 10.9366 52.099 11.6206 52.099L12.5968 52.2452C13.248 52.3752 14.0532 52.7654 15.014 53.4169C15.9742 54.0678 16.7634 54.914 17.382 55.9554C18.1311 57.2904 19.0336 58.3069 20.0921 59.0069C21.1497 59.7076 22.216 60.0575 23.29 60.0575C24.3641 60.0575 25.2917 59.9761 26.0733 59.814C26.854 59.6508 27.5865 59.4061 28.2704 59.0807C28.5634 56.8999 29.3611 55.2225 30.6627 54.0509C28.8075 53.8554 27.1393 53.5628 25.6577 53.1718C24.177 52.7808 22.6468 52.1465 21.0683 51.2673C19.489 50.3882 18.179 49.2985 17.1373 47.9956C16.0958 46.6928 15.241 44.9839 14.5742 42.8687C13.907 40.7523 13.5733 38.3106 13.5733 35.5439C13.5733 31.6054 14.8596 28.252 17.4311 25.4854C16.2264 22.5232 16.3401 19.2033 17.7726 15.5246C18.7167 15.2315 20.1167 15.4514 21.972 16.1839C23.8276 16.9169 25.1862 17.5437 26.0492 18.0638C26.9122 18.5841 27.6036 19.0239 28.1246 19.3824C31.1525 18.536 34.2773 18.1129 37.4997 18.1129C40.722 18.1129 43.8473 18.536 46.8755 19.3824L48.7309 18.2106C50.0009 17.429 51.4981 16.7129 53.2235 16.0622C54.9488 15.4112 56.2669 15.232 57.1788 15.5251C58.6431 19.2039 58.7741 22.5238 57.5686 25.4857C60.1401 28.2527 61.4267 31.6059 61.4267 35.5444C61.4267 38.3116 61.093 40.7615 60.4258 42.8931C59.7592 45.0253 58.8971 46.7348 57.8383 48.0206C56.7806 49.3065 55.462 50.3881 53.8835 51.2676C52.3046 52.1462 50.7746 52.7817 49.2932 53.1715C47.812 53.5624 46.144 53.8562 44.2885 54.0517C45.9801 55.516 46.8264 57.8265 46.8264 60.9847V72.6549C46.8264 73.2085 46.9071 73.6558 47.0699 73.9976C47.2337 74.3393 47.4937 74.5747 47.8517 74.7058C48.2111 74.8358 48.527 74.9171 48.8044 74.9494C49.0818 74.982 49.4798 74.9985 50.0007 74.9985H51.1362H60.9382C64.8116 74.9985 68.1243 73.6231 70.8739 70.8724C73.6246 68.1216 75 64.8089 75 60.9356V14.0624C74.9997 10.1889 73.6243 6.87582 70.874 4.12559Z" fill="black"/>
<path d="M14.1596 57.3262C13.9319 57.4883 13.9644 57.7488 14.2574 58.1069C14.5834 58.4322 14.8435 58.4812 15.039 58.2531C15.2666 58.091 15.2341 57.8305 14.9406 57.4717C14.6153 57.1792 14.355 57.1302 14.1596 57.3262Z" fill="black"/>
<path d="M12.5487 56.1053C12.4512 56.3336 12.5651 56.5291 12.8906 56.6912C13.1507 56.8546 13.363 56.8224 13.5253 56.5941C13.6228 56.3658 13.5089 56.1703 13.1834 56.007C12.8579 55.9091 12.6464 55.942 12.5487 56.1053Z" fill="black"/>
<path d="M15.6737 59.2306C15.3803 59.3928 15.3803 59.6866 15.6737 60.1092C15.9666 60.533 16.2428 60.6465 16.5036 60.4509C16.7968 60.2227 16.7968 59.9135 16.5036 59.5227C16.2435 59.1007 15.9666 59.0018 15.6737 59.2306Z" fill="black"/>
<path d="M17.383 61.4271C17.0899 61.6881 17.1545 61.9961 17.5783 62.3554C17.9685 62.7451 18.2941 62.7942 18.5545 62.5006C18.8152 62.2408 18.75 61.9318 18.3592 61.5736C17.9691 61.1837 17.6435 61.1345 17.383 61.4271Z" fill="black"/>
</svg>
