<svg width="75" height="75" viewBox="0 0 75 75" fill="none" xmlns="http://www.w3.org/2000/svg">
<path d="M8.71413 2.35608H66.2859C69.7973 2.35608 72.644 5.20274 72.644 8.7142V66.2857C72.644 69.7974 69.7973 72.644 66.2857 72.644H8.71413C5.20268 72.644 2.35602 69.7974 2.35602 66.2857V8.7142C2.35602 5.20274 5.20268 2.35608 8.71413 2.35608Z" fill="white"/>
<path d="M68.2156 0H6.78436C3.0375 0 0 3.0375 0 6.78436V68.2154C0 71.9625 3.0375 75 6.78436 75H68.2154C71.9625 75 75 71.9625 75 68.2154V6.78436C75 3.0375 71.9625 0 68.2156 0ZM23.2082 64.7599C23.2082 65.8504 22.3243 66.7343 21.2338 66.7343H12.8295C11.7391 66.7343 10.8552 65.8504 10.8552 64.7599V29.5294C10.8552 28.4389 11.7391 27.555 12.8295 27.555H21.2338C22.3243 27.555 23.2082 28.4389 23.2082 29.5294V64.7599ZM17.0317 24.234C12.6222 24.234 9.04751 20.6594 9.04751 16.2499C9.04751 11.8404 12.6222 8.26571 17.0317 8.26571C21.4412 8.26571 25.0158 11.8404 25.0158 16.2499C25.0158 20.6594 21.4414 24.234 17.0317 24.234ZM67.1289 64.919C67.1289 65.9215 66.3161 66.7343 65.3136 66.7343H56.2952C55.2927 66.7343 54.4798 65.9215 54.4798 64.919V48.3938C54.4798 45.9287 55.2029 37.5913 48.0375 37.5913C42.4795 37.5913 41.3521 43.298 41.1257 45.859V64.919C41.1257 65.9215 40.3131 66.7343 39.3104 66.7343H30.588C29.5855 66.7343 28.7727 65.9215 28.7727 64.919V29.3704C28.7727 28.3679 29.5855 27.555 30.588 27.555H39.3104C40.3129 27.555 41.1257 28.3679 41.1257 29.3704V32.444C43.1866 29.3511 46.2495 26.9639 52.7707 26.9639C67.2116 26.9639 67.1289 40.4552 67.1289 47.8681V64.919Z" fill="#0A66C2"/>
</svg>
