<svg width="922" height="922" viewBox="0 0 922 922" fill="none" xmlns="http://www.w3.org/2000/svg">
<g filter="url(#filter0_d)">
<path d="M361 57.735C409.803 29.5584 434.205 15.4701 461 15.4701C487.795 15.4701 512.197 29.5584 561 57.735L760.238 172.765C809.041 200.942 833.443 215.03 846.84 238.235C860.238 261.44 860.238 289.617 860.238 345.97V576.03C860.238 632.383 860.238 660.56 846.84 683.765C833.443 706.97 809.041 721.058 760.238 749.235L561 864.265C512.197 892.442 487.795 906.53 461 906.53C434.205 906.53 409.803 892.442 361 864.265L161.762 749.235C112.959 721.058 88.5572 706.97 75.1598 683.765C61.7623 660.56 61.7623 632.383 61.7623 576.03V345.97C61.7623 289.617 61.7623 261.44 75.1598 238.235C88.5572 215.03 112.959 200.942 161.762 172.765L361 57.735Z" fill="#F8F8F8"/>
</g>
<g filter="url(#filter1_d)">
<path d="M361 93.735C409.803 65.5584 434.205 51.4701 461 51.4701C487.795 51.4701 512.197 65.5584 561 93.735L729.061 190.765C777.864 218.942 802.266 233.03 815.663 256.235C829.061 279.44 829.061 307.617 829.061 363.97V558.03C829.061 614.383 829.061 642.56 815.663 665.765C802.266 688.97 777.864 703.058 729.061 731.235L561 828.265C512.197 856.442 487.795 870.53 461 870.53C434.205 870.53 409.803 856.442 361 828.265L192.939 731.235C144.136 703.058 119.734 688.97 106.337 665.765C92.9392 642.56 92.9392 614.383 92.9392 558.03V363.97C92.9392 307.617 92.9392 279.44 106.337 256.235C119.734 233.03 144.136 218.942 192.939 190.765L361 93.735Z" fill="white"/>
</g>
<path d="M585.747 205.156C555.633 207.664 231.077 342.424 199.709 357.317C168.34 372.21 166.169 410.847 190.507 429.217C214.846 447.587 460.915 571.189 503.771 581.796C546.628 592.402 572.781 529.915 523.01 513.084C473.24 496.253 283.776 398.283 283.776 398.283C283.776 394.836 571.85 285.969 578.218 283.745C584.587 281.52 615.116 272.797 619.625 253.229C624.78 230.852 615.86 202.648 585.747 205.156Z" fill="#604181"/>
<path d="M361.174 742.843C391.22 740.329 715.051 605.212 746.349 590.28C777.647 575.348 779.813 536.608 755.53 518.19C731.246 499.772 485.727 375.842 442.966 365.207C400.206 354.573 374.111 417.226 423.77 434.101C473.43 450.977 662.47 549.205 662.47 549.205C662.47 552.662 375.04 661.816 368.686 664.047C362.331 666.278 331.871 675.024 327.372 694.643C322.228 717.08 331.128 745.358 361.174 742.843Z" fill="#604181"/>
<defs>
<filter id="filter0_d" x="57.7622" y="15.4701" width="806.476" height="899.06" filterUnits="userSpaceOnUse" color-interpolation-filters="sRGB">
<feFlood flood-opacity="0" result="BackgroundImageFix"/>
<feColorMatrix in="SourceAlpha" type="matrix" values="0 0 0 0 0 0 0 0 0 0 0 0 0 0 0 0 0 0 127 0" result="hardAlpha"/>
<feOffset dy="4"/>
<feGaussianBlur stdDeviation="2"/>
<feComposite in2="hardAlpha" operator="out"/>
<feColorMatrix type="matrix" values="0 0 0 0 0 0 0 0 0 0 0 0 0 0 0 0 0 0 0.25 0"/>
<feBlend mode="normal" in2="BackgroundImageFix" result="effect1_dropShadow"/>
<feBlend mode="normal" in="SourceGraphic" in2="effect1_dropShadow" result="shape"/>
</filter>
<filter id="filter1_d" x="88.9395" y="51.4701" width="744.121" height="827.06" filterUnits="userSpaceOnUse" color-interpolation-filters="sRGB">
<feFlood flood-opacity="0" result="BackgroundImageFix"/>
<feColorMatrix in="SourceAlpha" type="matrix" values="0 0 0 0 0 0 0 0 0 0 0 0 0 0 0 0 0 0 127 0" result="hardAlpha"/>
<feOffset dy="4"/>
<feGaussianBlur stdDeviation="2"/>
<feComposite in2="hardAlpha" operator="out"/>
<feColorMatrix type="matrix" values="0 0 0 0 0 0 0 0 0 0 0 0 0 0 0 0 0 0 0.25 0"/>
<feBlend mode="normal" in2="BackgroundImageFix" result="effect1_dropShadow"/>
<feBlend mode="normal" in="SourceGraphic" in2="effect1_dropShadow" result="shape"/>
</filter>
</defs>
</svg>
