<svg width="1408" height="377" viewBox="0 0 1408 377" fill="none" xmlns="http://www.w3.org/2000/svg">
<rect y="67" width="10" height="10" fill="#FF79C6"/>
<rect x="433" y="131" width="10" height="10" fill="#BD93F9"/>
<rect x="1271" y="206" width="10" height="10" fill="#BD93F9"/>
<rect x="907" y="143" width="10" height="10" fill="#BD93F9"/>
<rect x="1054" y="295" width="10" height="10" fill="#BD93F9"/>
<rect x="672" y="257" width="10" height="10" fill="#BD93F9"/>
<rect x="380" y="236" width="10" height="10" fill="#FF79C6"/>
<rect x="255" y="77" width="10" height="10" fill="#FF79C6"/>
<rect x="662" y="161" width="10" height="10" fill="#FF79C6"/>
<rect x="1007" y="170" width="10" height="10" fill="#FF79C6"/>
<rect x="1242" y="122" width="10" height="10" fill="#FF79C6"/>
<rect x="1371" y="5" width="10" height="10" fill="#FF79C6"/>
<rect x="335.532" y="64.5319" width="10" height="10" fill="#8BE9FD"/>
<rect x="380" y="10" width="10" height="10" fill="#8BE9FD"/>
<rect x="203.532" y="270.532" width="10" height="10" fill="#8BE9FD"/>
<rect x="476.532" y="274.532" width="10" height="10" fill="#8BE9FD"/>
<rect x="33" y="10" width="10" height="10" fill="#8BE9FD"/>
<rect x="709.532" y="76.5319" width="10" height="10" fill="#8BE9FD"/>
<rect x="967" y="216" width="10" height="10" fill="#8BE9FD"/>
<rect x="1084" y="115" width="10" height="10" fill="#8BE9FD"/>
<rect x="1180" y="26" width="10" height="10" fill="#8BE9FD"/>
<rect x="517" y="84" width="10" height="10" fill="#8BE9FD"/>
<rect x="32.5319" y="322.532" width="10" height="10" fill="#8BE9FD"/>
<rect x="69.5319" y="227.532" width="10" height="10" fill="#FF79C6"/>
<rect x="111" y="31" width="10" height="10" fill="#F1FA8C"/>
<rect x="192.532" y="190.532" width="10" height="10" fill="#F1FA8C"/>
<rect x="148" y="99" width="10" height="10" fill="#F1FA8C"/>
<rect x="550" y="236" width="10" height="10" fill="#F1FA8C"/>
<rect x="824" y="206" width="10" height="10" fill="#F1FA8C"/>
<rect x="1297" y="70" width="10" height="10" fill="#F1FA8C"/>
<rect x="1212" y="255" width="10" height="10" fill="#F1FA8C"/>
<rect x="1132" y="10" width="10" height="10" fill="#F1FA8C"/>
<rect x="1371" y="176" width="10" height="10" fill="#F1FA8C"/>
<rect x="482.532" y="29.5319" width="10" height="10" fill="#F1FA8C"/>
<rect x="597.532" y="119.532" width="10" height="10" fill="#F1FA8C"/>
<rect x="862" y="16" width="10" height="10" fill="#F1FA8C"/>
<rect x="281.532" y="265.532" width="10" height="10" fill="#F1FA8C"/>
<rect x="38" y="77" width="10" height="10" fill="#50FA7B"/>
<rect x="586" y="31" width="10" height="10" fill="#50FA7B"/>
<rect x="804" y="112" width="10" height="10" fill="#50FA7B"/>
<rect x="1242" y="35" width="10" height="10" fill="#50FA7B"/>
<rect x="918" y="265" width="10" height="10" fill="#50FA7B"/>
<rect x="127" y="267" width="10" height="10" fill="#50FA7B"/>
<rect x="324" y="166" width="10" height="10" fill="#F8F8F2"/>
<rect x="512" y="311" width="10" height="10" fill="#F8F8F2"/>
<rect x="726" y="141" width="10" height="10" fill="#F8F8F2"/>
<rect x="1064" y="40" width="10" height="10" fill="#F8F8F2"/>
<rect x="1035" y="126" width="10" height="10" fill="#F8F8F2"/>
<rect x="1155" y="257" width="10" height="10" fill="#F8F8F2"/>
<rect x="18" y="265" width="10" height="10" fill="#F8F8F2"/>
<rect x="282" y="338" width="10" height="10" fill="#F8F8F2"/>
<rect x="209.532" y="121.532" width="10" height="10" fill="#50FA7B"/>
<rect x="731" y="223" width="10" height="10" fill="#50FA7B"/>
<rect x="384.532" y="312.532" width="10" height="10" fill="#50FA7B"/>
<rect x="997" y="16" width="10" height="10" fill="#50FA7B"/>
<rect x="1185" y="191" width="10" height="10" fill="#50FA7B"/>
<rect x="205" y="15" width="10" height="10" fill="#FFB86C"/>
<rect x="277" y="26" width="10" height="10" fill="#FFB86C"/>
<rect x="588" y="266" width="10" height="10" fill="#FFB86C"/>
<rect x="867" y="105" width="10" height="10" fill="#FFB86C"/>
<rect x="647" y="89" width="10" height="10" fill="#FFB86C"/>
<rect x="928" y="31" width="10" height="10" fill="#FFB86C"/>
<rect x="1122" y="168" width="10" height="10" fill="#FFB86C"/>
<rect x="992" y="60" width="10" height="10" fill="#FFB86C"/>
<rect x="1339" y="57" width="10" height="10" fill="#FFB86C"/>
<rect x="1281" y="285" width="10" height="10" fill="#FFB86C"/>
<rect x="227" y="324" width="10" height="10" fill="#FFB86C"/>
<rect x="422.532" y="177.532" width="10" height="10" fill="#FFB86C"/>
<rect x="111" y="143" width="10" height="10" fill="#FF5555"/>
<rect x="319" y="115" width="10" height="10" fill="#FF5555"/>
<rect x="596" y="308" width="10" height="10" fill="#FF5555"/>
<rect x="761" y="140" width="10" height="10" fill="#FF5555"/>
<rect x="897" y="186" width="10" height="10" fill="#FF5555"/>
<rect x="1074" y="67" width="10" height="10" fill="#FF5555"/>
<rect x="1271" width="10" height="10" fill="#FF5555"/>
<rect x="1349" y="243" width="10" height="10" fill="#FF5555"/>
<rect x="153" y="328" width="10" height="10" fill="#FF5555"/>
<rect x="814" y="278" width="10" height="10" fill="#8BE9FD"/>
<rect x="1398" y="87" width="10" height="10" fill="#F8F8F2"/>
<rect x="769" y="20" width="10" height="10" fill="#FFB86C"/>
<rect x="560" y="138" width="10" height="10" fill="#FF79C6"/>
<rect x="1064" y="191" width="10" height="10" fill="#FF79C6"/>
<rect x="28" y="143" width="10" height="10" fill="#F1FA8C"/>
<rect x="477" y="196" width="10" height="10" fill="#50FA7B"/>
<rect x="1315" y="133" width="10" height="10" fill="#50FA7B"/>
<rect x="250" y="181" width="10" height="10" fill="#BD93F9"/>
<rect x="1155" y="87" width="10" height="10" fill="#BD93F9"/>
<rect x="153" y="343" width="10" height="10" fill="#FF5555"/>
<rect x="814" y="293" width="10" height="10" fill="#8BE9FD"/>
<rect x="1398" y="102" width="10" height="10" fill="#F8F8F2"/>
<rect x="769" y="35" width="10" height="10" fill="#FFB86C"/>
<rect x="560" y="153" width="10" height="10" fill="#FF79C6"/>
<rect x="1064" y="206" width="10" height="10" fill="#FF79C6"/>
<rect x="28" y="158" width="10" height="10" fill="#F1FA8C"/>
<rect x="477" y="211" width="10" height="10" fill="#50FA7B"/>
<rect x="1315" y="148" width="10" height="10" fill="#50FA7B"/>
<rect x="250" y="196" width="10" height="10" fill="#BD93F9"/>
<rect x="1155" y="102" width="10" height="10" fill="#BD93F9"/>
<rect x="153" y="358" width="10" height="10" fill="#FF5555"/>
<rect x="814" y="308" width="10" height="10" fill="#8BE9FD"/>
<rect x="1398" y="117" width="10" height="10" fill="#F8F8F2"/>
<rect x="769" y="50" width="10" height="10" fill="#FFB86C"/>
<rect x="560" y="168" width="10" height="10" fill="#FF79C6"/>
<rect x="1064" y="221" width="10" height="10" fill="#FF79C6"/>
<rect x="28" y="173" width="10" height="10" fill="#F1FA8C"/>
<rect x="477" y="226" width="10" height="10" fill="#50FA7B"/>
<rect x="1315" y="163" width="10" height="10" fill="#50FA7B"/>
<rect x="250" y="211" width="10" height="10" fill="#BD93F9"/>
<rect x="1155" y="117" width="10" height="10" fill="#BD93F9"/>
<rect x="431.532" y="88.5319" width="10" height="10" fill="#FF5555"/>
<path d="M785.25 172L786.957 269.519C786.98 270.882 785.882 272 784.519 272V272C783.141 272 782.037 270.859 782.082 269.483L785.25 172Z" fill="#FFB86C"/>
<path d="M1247.25 221L1248.96 318.519C1248.98 319.882 1247.88 321 1246.52 321V321C1245.14 321 1244.04 319.859 1244.08 318.483L1247.25 221Z" fill="#50FA7B"/>
<path d="M332.25 257L333.957 354.519C333.98 355.882 332.882 357 331.519 357V357C330.141 357 329.037 355.859 329.082 354.483L332.25 257Z" fill="#FF79C6"/>
<path d="M182.25 54L183.957 151.519C183.98 152.882 182.882 154 181.519 154V154C180.141 154 179.037 152.859 179.082 151.483L182.25 54Z" fill="#FF5555"/>
<path d="M968.25 75L969.957 172.519C969.98 173.882 968.882 175 967.519 175V175C966.141 175 965.037 173.859 965.082 172.483L968.25 75Z" fill="#F1FA8C"/>
<path d="M636.25 143L637.957 240.519C637.98 241.882 636.882 243 635.519 243V243C634.141 243 633.037 241.859 633.082 240.483L636.25 143Z" fill="#8BE9FD"/>
<path d="M75.25 15L76.9566 112.519C76.9804 113.882 75.882 115 74.5187 115V115C73.1411 115 72.0371 113.859 72.0818 112.483L75.25 15Z" fill="#BD93F9"/>
<rect x="72.5" y="357.5" width="19" height="19" stroke="#BD93F9"/>
<rect x="336.5" y="213.5" width="19" height="19" stroke="#FF5555"/>
<rect x="497.5" y="132.5" width="19" height="19" stroke="#8BE9FD"/>
<rect x="657.5" y="16.5" width="19" height="19" stroke="#F8F8F2"/>
<rect x="872.5" y="237.5" width="19" height="19" stroke="#FFB86C"/>
<rect x="1199.5" y="144.5" width="19" height="19" stroke="#FF5555"/>
<rect x="1291.5" y="238.5" width="19" height="19" stroke="#BD93F9"/>
<rect x="1346.5" y="99.5" width="19" height="19" stroke="#F1FA8C"/>
<rect x="917.5" y="80.5" width="19" height="19" stroke="#FF79C6"/>
<rect x="365.5" y="116.5" width="19" height="19" stroke="#50FA7B"/>
<rect x="112.5" y="186.5" width="19" height="19" stroke="#F8F8F2"/>
</svg>
