<svg width="439" height="439" viewBox="0 0 439 439" fill="none" xmlns="http://www.w3.org/2000/svg">
<path d="M346.937 31C368.169 31 386.316 38.4637 401.39 53.3882C416.461 68.3128 423.998 86.2916 424 107.312V361.677C424 382.696 416.463 400.673 401.389 415.601C386.321 430.528 368.168 437.992 346.942 437.992H293.226H287.004L150 438H142.335H90.0622C68.8362 438 50.6825 430.536 35.6083 415.609C20.5371 400.684 13 382.71 13 361.689V107.312C13 86.2916 20.5371 68.3155 35.6083 53.3882C50.6834 38.4637 68.8362 31 90.0622 31H346.937Z" fill="white"/>
<path d="M154.173 368.599C151.124 369.167 149.792 370.598 150.174 372.88C150.554 375.163 152.267 375.926 155.312 375.163C158.361 374.403 159.692 373.068 159.309 371.166C158.931 369.074 157.218 368.216 154.173 368.599Z" fill="black"/>
<path d="M137.898 370.885C134.852 370.885 133.33 371.926 133.33 374.024C133.33 376.498 134.949 377.542 138.183 377.162C141.229 377.162 142.753 376.115 142.753 374.024C142.753 371.553 141.134 370.502 137.898 370.885Z" fill="black"/>
<path d="M115.629 370.022C114.869 372.117 116.107 373.541 119.34 374.306C122.195 375.443 124.004 374.874 124.764 372.592C125.336 370.501 124.098 368.982 121.053 368.024C118.197 367.265 116.39 367.922 115.629 370.022Z" fill="black"/>
<path d="M414.41 24.123C398.326 8.042 378.964 0 356.309 0H82.225C59.577 0 40.208 8.042 24.123 24.123C8.042 40.207 0 59.576 0 82.225V356.313C0 378.963 8.042 398.33 24.123 414.411C40.207 430.495 59.577 438.537 82.225 438.537H138H146.178C150.362 438.537 153.505 438.393 155.598 438.113C157.69 437.825 159.782 436.587 161.877 434.396C163.973 432.209 165.017 429.02 165.017 424.834C165.017 424.266 164.967 417.788 164.873 405.417C164.776 393.042 164.729 383.241 164.729 376.007L158.162 377.15C153.975 377.91 148.693 378.245 142.316 378.149C135.942 378.053 129.326 377.389 122.475 376.151C115.62 374.912 109.246 372.058 103.345 367.589C97.447 363.112 93.26 357.261 90.785 350.03L87.929 343.459C86.026 339.086 83.03 334.23 78.937 328.905C74.844 323.573 70.705 319.956 66.518 318.053L64.519 316.625C63.188 315.674 61.951 314.527 60.808 313.196C59.667 311.861 58.811 310.527 58.24 309.199C57.669 307.864 58.143 306.769 59.667 305.91C61.191 305.055 63.948 304.631 67.947 304.631L73.655 305.486C77.463 306.246 82.171 308.528 87.789 312.337C93.403 316.143 98.018 321.091 101.635 327.18C106.015 334.986 111.292 340.93 117.481 345.023C123.665 349.12 129.9 351.166 136.18 351.166C142.46 351.166 147.884 350.69 152.454 349.742C157.019 348.788 161.302 347.357 165.301 345.454C167.014 332.703 171.678 322.895 179.289 316.044C168.441 314.901 158.687 313.19 150.024 310.904C141.366 308.618 132.419 304.909 123.189 299.768C113.955 294.628 106.295 288.256 100.204 280.638C94.114 273.02 89.116 263.028 85.217 250.66C81.316 238.285 79.365 224.008 79.365 207.831C79.365 184.802 86.886 165.194 101.922 149.017C94.878 131.697 95.543 112.285 103.919 90.775C109.439 89.061 117.625 90.347 128.473 94.63C139.323 98.916 147.267 102.581 152.313 105.622C157.359 108.664 161.402 111.236 164.448 113.332C182.153 108.383 200.424 105.909 219.266 105.909C238.107 105.909 256.381 108.383 274.087 113.332L284.936 106.48C292.362 101.91 301.116 97.723 311.205 93.918C321.293 90.112 329 89.064 334.332 90.778C342.894 112.288 343.66 131.7 336.611 149.019C351.647 165.198 359.17 184.805 359.17 207.834C359.17 224.014 357.219 238.339 353.318 250.803C349.42 263.27 344.379 273.266 338.188 280.784C332.004 288.303 324.294 294.627 315.064 299.77C305.832 304.907 296.886 308.623 288.224 310.902C279.563 313.188 269.81 314.906 258.961 316.049C268.852 324.611 273.8 338.121 273.8 356.587V424.825C273.8 428.062 274.272 430.677 275.224 432.676C276.182 434.674 277.702 436.05 279.795 436.817C281.897 437.577 283.744 438.052 285.366 438.241C286.988 438.432 289.315 438.528 292.361 438.528H299H356.314C378.962 438.528 398.332 430.486 414.409 414.402C430.493 398.318 438.535 378.948 438.535 356.3V82.225C438.533 59.576 430.491 40.204 414.41 24.123Z" fill="black"/>
<path d="M82.793 335.195C81.462 336.143 81.652 337.666 83.365 339.76C85.271 341.662 86.792 341.949 87.935 340.615C89.266 339.667 89.076 338.144 87.36 336.046C85.458 334.336 83.936 334.049 82.793 335.195Z" fill="black"/>
<path d="M73.374 328.057C72.804 329.392 73.47 330.535 75.373 331.483C76.894 332.438 78.135 332.25 79.084 330.915C79.654 329.58 78.988 328.437 77.085 327.482C75.182 326.91 73.945 327.102 73.374 328.057Z" fill="black"/>
<path d="M91.646 346.331C89.931 347.279 89.931 348.997 91.646 351.468C93.359 353.946 94.974 354.61 96.499 353.466C98.213 352.132 98.213 350.324 96.499 348.039C94.978 345.571 93.359 344.993 91.646 346.331Z" fill="black"/>
<path d="M101.641 359.174C99.927 360.7 100.305 362.501 102.783 364.602C105.064 366.881 106.968 367.168 108.491 365.451C110.015 363.932 109.634 362.125 107.349 360.031C105.068 357.751 103.164 357.463 101.641 359.174Z" fill="black"/>
</svg>
